<svg width="343" height="56" viewBox="0 0 343 56" fill="none" xmlns="http://www.w3.org/2000/svg">
<rect x="0.5" width="342" height="56" rx="12" fill="black"/>
<path d="M109.96 22.3846C110.818 22.3846 111.893 21.8048 112.533 21.0318C113.113 20.3312 113.535 19.3528 113.535 18.3744C113.535 18.2416 113.523 18.1087 113.499 18C112.545 18.0362 111.397 18.6402 110.709 19.4495C110.165 20.0655 109.67 21.0318 109.67 22.0223C109.67 22.1672 109.694 22.3121 109.706 22.3605C109.767 22.3725 109.863 22.3846 109.96 22.3846ZM106.94 37C108.112 37 108.631 36.2149 110.093 36.2149C111.579 36.2149 111.905 36.9758 113.209 36.9758C114.49 36.9758 115.347 35.7921 116.156 34.6325C117.062 33.3039 117.437 31.9994 117.461 31.939C117.376 31.9148 114.924 30.9123 114.924 28.0979C114.924 25.658 116.857 24.5588 116.966 24.4743C115.685 22.6383 113.741 22.59 113.209 22.59C111.772 22.59 110.6 23.4596 109.863 23.4596C109.066 23.4596 108.015 22.6383 106.771 22.6383C104.404 22.6383 102 24.595 102 28.2912C102 30.5861 102.894 33.014 103.993 34.5842C104.935 35.9129 105.757 37 106.94 37Z" fill="white"/>
<path d="M130.255 32.344L134.255 21.368H136.271L140.175 32.344H138.143L137.151 29.56H133.071L132.079 32.344H130.255ZM135.071 23.704L133.535 28.088H136.655L135.119 23.704H135.071ZM141.541 34.728V24.104H143.317V24.808H143.381C143.877 24.312 144.725 23.96 145.765 23.96C147.477 23.96 149.029 24.952 149.029 27.976V28.184C149.029 31.272 147.541 32.488 145.301 32.488C144.389 32.488 143.781 32.248 143.381 32.024V34.728H141.541ZM145.045 31.096C146.357 31.096 147.109 30.424 147.109 28.424V28.088C147.109 26.056 146.405 25.464 145.109 25.464C144.325 25.464 143.701 25.72 143.381 25.944V30.616C143.701 30.872 144.325 31.096 145.045 31.096ZM150.776 34.728V24.104H152.552V24.808H152.616C153.112 24.312 153.96 23.96 155 23.96C156.712 23.96 158.264 24.952 158.264 27.976V28.184C158.264 31.272 156.776 32.488 154.536 32.488C153.624 32.488 153.016 32.248 152.616 32.024V34.728H150.776ZM154.28 31.096C155.592 31.096 156.344 30.424 156.344 28.424V28.088C156.344 26.056 155.64 25.464 154.344 25.464C153.56 25.464 152.936 25.72 152.616 25.944V30.616C152.936 30.872 153.56 31.096 154.28 31.096ZM160.042 32.344V20.648H161.898V32.344H160.042ZM167.735 32.488C164.999 32.488 163.655 30.936 163.655 28.328V28.104C163.655 25.336 165.335 23.976 167.431 23.976C169.863 23.976 170.919 25.336 170.919 27.96V28.728H165.543C165.655 30.44 166.535 31.048 168.103 31.048C169.159 31.048 169.927 30.808 170.647 30.44V31.72C170.087 32.088 169.127 32.488 167.735 32.488ZM167.399 25.336C166.551 25.336 165.671 25.784 165.543 27.464H169.047C169.047 25.912 168.471 25.336 167.399 25.336ZM183.675 28.776H179.355V31H184.891V32.488H172.011V31H177.483V28.776H173.659V24.056H181.403V22.408H173.579V20.92H183.259V25.544H175.515V27.272H183.675V28.776ZM201.85 34.264H199.978V20.008H201.85V34.264ZM198.906 29.624L197.818 31.032C196.65 30.312 195.162 28.584 194.682 27.096C194.218 28.728 192.746 30.536 191.274 31.336L190.138 29.96C192.442 28.472 193.674 26.216 193.674 23.384V21.208H195.61V23.288C195.61 26.104 196.746 28.232 198.906 29.624ZM204.078 22.44V20.92H211.582V22.44H208.862C209.022 24.472 210.462 25.832 212.046 26.344L211.022 27.832C209.918 27.4 208.542 26.328 207.918 25.016C207.502 26.392 205.998 27.752 204.622 28.216L203.518 26.76C205.502 26.04 206.846 24.504 206.942 22.44H204.078ZM205.694 29.032H215.07V34.28H213.182V30.52H205.694V29.032ZM217.086 24.92H215.054V28.312H213.166V20.008H215.054V23.384H217.086V24.92ZM225.954 24.888H217.682V23.4H225.954V24.888ZM219.682 22.408V20.936H224.082V22.408H219.682ZM228.898 20.008V25.784H230.882V27.336H228.898V34.264H227.01V20.008H228.898ZM218.386 28.456C218.386 26.712 219.778 25.384 221.826 25.384C223.874 25.384 225.266 26.664 225.266 28.456C225.266 30.2 223.874 31.528 221.826 31.528C219.778 31.528 218.386 30.264 218.386 28.456ZM220.21 28.456C220.21 29.384 220.882 30.008 221.826 30.008C222.866 30.008 223.442 29.384 223.442 28.456C223.442 27.512 222.754 26.888 221.826 26.888C220.898 26.888 220.21 27.512 220.21 28.456ZM243.381 34.264H241.509V20.008H243.381V34.264ZM238.997 21.496C238.885 25.8 236.981 29.32 232.629 31.688L231.477 30.28C234.597 28.856 236.725 25.88 236.981 23.048H232.341V21.496H238.997Z" fill="white"/>
</svg>
