<svg width="73" height="72" viewBox="0 0 73 72" fill="none" xmlns="http://www.w3.org/2000/svg">
<circle cx="36.5" cy="36" r="36" fill="black"/>
<path d="M57.3282 43.4313H54.7831V40.8098H38.0363V38.3665H54.7831V29.0005H57.3282V29.5095H59.8224V31.9274H57.3282V43.4313ZM37.5527 31.7238V29.2804H45.2644V37.3993H42.7193V31.7238H37.5527ZM46.1297 31.7238V29.2804H53.1288V37.3484H50.5837V31.7238H46.1297Z" fill="white"/>
<path d="M15.4926 31.7235V29.2802H28.0909V31.7235H25.9021V34.2177C26.2329 36.6101 27.2001 39.3843 29.1089 40.9368L27.6327 42.7693C26.3856 41.7767 25.4439 40.3769 24.7822 38.8753C24.1459 40.4532 23.1534 41.9803 21.6517 43.1765L20.1756 41.344C22.5171 39.4352 23.3315 36.6101 23.3824 34.2941V31.7235H20.2265V33.2506C20.3028 34.6249 20.7864 36.6101 22.0335 38.6208L19.9974 39.8424C19.6666 39.3079 19.3866 38.7735 19.1321 38.2644C18.4704 40.1478 17.4523 41.9803 15.9762 43.1765L14.5 41.344C16.3579 39.817 17.3505 36.8392 17.7068 34.2177V31.7235H15.4926ZM29.7452 43.431V29.0002H32.2903V30.4255H33.232V29.0002H35.7771V43.431H33.232V32.8688H32.2903V43.431H29.7452Z" fill="white"/>
</svg>
