<svg width="343" height="56" viewBox="0 0 343 56" fill="none" xmlns="http://www.w3.org/2000/svg">
<rect x="0.5" width="342" height="56" rx="12" fill="#FAE100"/>
<path fill-rule="evenodd" clip-rule="evenodd" d="M109.946 18C103.9 18 99 21.7684 99 26.417C99 29.4223 101.049 32.0594 104.131 33.5485C103.963 34.1124 103.053 37.1764 103.017 37.4171C103.017 37.4171 102.995 37.598 103.115 37.6669C103.235 37.7359 103.377 37.6823 103.377 37.6823C103.721 37.6354 107.37 35.1356 108.002 34.7015C108.632 34.7887 109.282 34.8339 109.946 34.8339C115.991 34.8339 120.891 31.0656 120.891 26.417C120.891 21.7684 115.991 18 109.946 18Z" fill="#202326"/>
<path d="M137.799 21.448C137.799 26.248 135.719 29.672 131.463 31.88L130.311 30.552C132.295 29.64 133.927 28.168 134.903 26.296L130.951 26.728C130.871 26.184 130.791 25.656 130.695 25.112L135.527 24.76C135.671 24.2 135.783 23.608 135.831 23H131.399V21.448H137.799ZM141.639 20.008V25.48H143.639V27.032H141.639V34.264H139.783V20.008H141.639ZM151.643 21.448C151.643 26.248 149.563 29.672 145.307 31.88L144.155 30.552C146.139 29.64 147.771 28.168 148.747 26.296L144.795 26.728C144.715 26.184 144.635 25.656 144.539 25.112L149.371 24.76C149.515 24.2 149.627 23.608 149.675 23H145.243V21.448H151.643ZM155.483 20.008V25.48H157.483V27.032H155.483V34.264H153.627V20.008H155.483ZM171.071 32.488H158.191V31H163.679V28.728C161.071 28.424 159.407 26.904 159.407 24.824C159.407 22.52 161.487 20.904 164.639 20.904C167.807 20.904 169.871 22.52 169.871 24.824C169.871 26.92 168.191 28.456 165.551 28.728V31H171.071V32.488ZM167.983 24.84C167.983 23.416 166.671 22.44 164.639 22.44C162.623 22.44 161.311 23.416 161.311 24.84C161.311 26.28 162.623 27.24 164.639 27.24C166.655 27.24 167.983 26.28 167.983 24.84ZM183.699 28.776H179.379V31H184.915V32.488H172.035V31H177.507V28.776H173.683V24.056H181.427V22.408H173.603V20.92H183.283V25.544H175.539V27.272H183.699V28.776ZM201.874 34.264H200.002V20.008H201.874V34.264ZM198.93 29.624L197.842 31.032C196.674 30.312 195.186 28.584 194.706 27.096C194.242 28.728 192.77 30.536 191.298 31.336L190.162 29.96C192.466 28.472 193.698 26.216 193.698 23.384V21.208H195.634V23.288C195.634 26.104 196.77 28.232 198.93 29.624ZM204.101 22.44V20.92H211.605V22.44H208.885C209.045 24.472 210.485 25.832 212.069 26.344L211.045 27.832C209.941 27.4 208.565 26.328 207.941 25.016C207.525 26.392 206.021 27.752 204.645 28.216L203.541 26.76C205.525 26.04 206.869 24.504 206.965 22.44H204.101ZM205.717 29.032H215.093V34.28H213.205V30.52H205.717V29.032ZM217.109 24.92H215.077V28.312H213.189V20.008H215.077V23.384H217.109V24.92ZM225.977 24.888H217.705V23.4H225.977V24.888ZM219.705 22.408V20.936H224.105V22.408H219.705ZM228.921 20.008V25.784H230.905V27.336H228.921V34.264H227.033V20.008H228.921ZM218.409 28.456C218.409 26.712 219.801 25.384 221.849 25.384C223.897 25.384 225.289 26.664 225.289 28.456C225.289 30.2 223.897 31.528 221.849 31.528C219.801 31.528 218.409 30.264 218.409 28.456ZM220.233 28.456C220.233 29.384 220.905 30.008 221.849 30.008C222.889 30.008 223.465 29.384 223.465 28.456C223.465 27.512 222.777 26.888 221.849 26.888C220.921 26.888 220.233 27.512 220.233 28.456ZM243.405 34.264H241.533V20.008H243.405V34.264ZM239.021 21.496C238.909 25.8 237.005 29.32 232.653 31.688L231.501 30.28C234.621 28.856 236.749 25.88 237.005 23.048H232.365V21.496H239.021Z" fill="black"/>
</svg>
