<svg width="112" height="37" viewBox="0 0 112 37" fill="none" xmlns="http://www.w3.org/2000/svg">
<path d="M105.723 36.3486H99.4803V29.9186H58.4029V23.9255H99.4803V0.952148H105.723V2.2007H111.841V8.13133H105.723V36.3486ZM57.2168 7.6319V1.63885H76.1324V21.5533H69.8896V7.6319H57.2168ZM78.2549 7.6319V1.63885H95.4225V21.4284H89.1798V7.6319H78.2549Z" fill="#92FD4B"/>
<path d="M3.10655 7.6319V1.63885H34.0082V7.6319H28.6395V13.7498C29.451 19.618 31.8233 26.4226 36.5054 30.2307L32.8845 34.7255C29.8256 32.2908 27.5158 28.8573 25.8927 25.1741C24.332 29.0446 21.8973 32.7903 18.2141 35.7244L14.5932 31.2296C20.3366 26.5475 22.3343 19.618 22.4591 13.9371V7.6319H14.7181V11.3776C14.9054 14.7487 16.0915 19.618 19.1505 24.5498L14.1563 27.5463C13.3447 26.2354 12.658 24.9244 12.0337 23.6758C10.4106 28.2955 7.91349 32.7903 4.29268 35.7244L0.671875 31.2296C5.22909 27.4839 7.66378 20.1799 8.53777 13.7498V7.6319H3.10655ZM38.066 36.3486V0.952148H44.3088V4.4481H46.6186V0.952148H52.8614V36.3486H46.6186V10.4411H44.3088V36.3486H38.066Z" fill="#92FD4B"/>
</svg>
