<svg width="51" height="17" viewBox="0 0 51 17" fill="none" xmlns="http://www.w3.org/2000/svg">
<path d="M48.1229 16.5469H45.3011V13.6403H26.7332V10.9314H45.3011V0.546875H48.1229V1.11125H50.8884V3.79202H48.1229V16.5469ZM26.197 3.56627V0.857279H34.7473V9.85904H31.9254V3.56627H26.197ZM35.7067 3.56627V0.857279H43.4669V9.80261H40.645V3.56627H35.7067Z" fill="white"/>
<path d="M1.73774 3.56627V0.857279H15.706V3.56627H13.2792V6.33171C13.646 8.98426 14.7183 12.0601 16.8347 13.7814L15.1981 15.8132C13.8153 14.7127 12.7712 13.1606 12.0376 11.4957C11.3321 13.2453 10.2316 14.9384 8.56666 16.2647L6.92998 14.2329C9.5261 12.1165 10.4291 8.98426 10.4855 6.41636V3.56627H6.98642V5.2594C7.07107 6.7832 7.60723 8.98426 8.98994 11.2135L6.73245 12.568C6.3656 11.9754 6.0552 11.3829 5.77301 10.8185C5.03932 12.9067 3.91058 14.9384 2.27389 16.2647L0.637207 14.2329C2.69717 12.5398 3.7977 9.23823 4.19276 6.33171V3.56627H1.73774ZM17.5402 16.5469V0.546875H20.3621V2.12712H21.4062V0.546875H24.228V16.5469H21.4062V4.83611H20.3621V16.5469H17.5402Z" fill="white"/>
</svg>
